# xmcd CD database file
#
# Track frame offsets:
#	150
#	11485
#	26914
#	47788
#	61158
#	82808
#	98450
#	114589
#	136207
#	155035
#	177490
#	197076
#
# Disc length: 2810 seconds
#
# Revision: 0
# Processed by: cddbd v1.5.2PL0 Copyright (c) Steve Scherf et al.
# Submitted via: CDex 1.70beta2
#
DISCID=960af80c
DTITLE=Debbie Deane - Grove House
DYEAR=2007
DGENRE=Jazz
TTITLE0=Poseidon
TTITLE1=Yesterday
TTITLE2=Bad Boy
TTITLE3=Pie
TTITLE4=Out There
TTITLE5=Down, Down, Down
TTITLE6=You Know Me
TTITLE7=Grove House
TTITLE8=The Spell
TTITLE9=Still Here
TTITLE10=Slow It Down
TTITLE11=Sailor Song
EXTD=YEAR: 2007
EXTT0=
EXTT1=
EXTT2=
EXTT3=
EXTT4=
EXTT5=
EXTT6=
EXTT7=
EXTT8=
EXTT9=
EXTT10=
EXTT11=
PLAYORDER=
